<svg id="visual" viewBox="0 0 900 600" width="900" height="600" xmlns="http://www.w3.org/2000/svg" xmlns:xlink="http://www.w3.org/1999/xlink" version="1.1"><rect x="0" y="0" width="900" height="600" fill="#000000"></rect><path d="M0 218L13.7 203C27.3 188 54.7 158 82 143.3C109.3 128.7 136.7 129.3 163.8 149.7C191 170 218 210 245.2 226.7C272.3 243.3 299.7 236.7 327 223.8C354.3 211 381.7 192 409 189C436.3 186 463.7 199 491 205.8C518.3 212.7 545.7 213.3 573 215.2C600.3 217 627.7 220 654.8 221.7C682 223.3 709 223.7 736.2 209.2C763.3 194.7 790.7 165.3 818 154.3C845.3 143.3 872.7 150.7 886.3 154.3L900 158L900 601L886.3 601C872.7 601 845.3 601 818 601C790.7 601 763.3 601 736.2 601C709 601 682 601 654.8 601C627.7 601 600.3 601 573 601C545.7 601 518.3 601 491 601C463.7 601 436.3 601 409 601C381.7 601 354.3 601 327 601C299.7 601 272.3 601 245.2 601C218 601 191 601 163.8 601C136.7 601 109.3 601 82 601C54.7 601 27.3 601 13.7 601L0 601Z" fill="#414141"></path><path d="M0 188L13.7 197.7C27.3 207.3 54.7 226.7 82 242.2C109.3 257.7 136.7 269.3 163.8 260.8C191 252.3 218 223.7 245.2 211.7C272.3 199.7 299.7 204.3 327 218.2C354.3 232 381.7 255 409 261.7C436.3 268.3 463.7 258.7 491 250.2C518.3 241.7 545.7 234.3 573 235.3C600.3 236.3 627.7 245.7 654.8 256.5C682 267.3 709 279.7 736.2 283C763.3 286.3 790.7 280.7 818 260.3C845.3 240 872.7 205 886.3 187.5L900 170L900 601L886.3 601C872.7 601 845.3 601 818 601C790.7 601 763.3 601 736.2 601C709 601 682 601 654.8 601C627.7 601 600.3 601 573 601C545.7 601 518.3 601 491 601C463.7 601 436.3 601 409 601C381.7 601 354.3 601 327 601C299.7 601 272.3 601 245.2 601C218 601 191 601 163.8 601C136.7 601 109.3 601 82 601C54.7 601 27.3 601 13.7 601L0 601Z" fill="#464646"></path><path d="M0 297L13.7 288.3C27.3 279.7 54.7 262.3 82 260C109.3 257.7 136.7 270.3 163.8 266.7C191 263 218 243 245.2 230.5C272.3 218 299.7 213 327 222.8C354.3 232.7 381.7 257.3 409 267C436.3 276.7 463.7 271.3 491 276.7C518.3 282 545.7 298 573 295.8C600.3 293.7 627.7 273.3 654.8 273.5C682 273.7 709 294.3 736.2 304C763.3 313.7 790.7 312.3 818 299.2C845.3 286 872.7 261 886.3 248.5L900 236L900 601L886.3 601C872.7 601 845.3 601 818 601C790.7 601 763.3 601 736.2 601C709 601 682 601 654.8 601C627.7 601 600.3 601 573 601C545.7 601 518.3 601 491 601C463.7 601 436.3 601 409 601C381.7 601 354.3 601 327 601C299.7 601 272.3 601 245.2 601C218 601 191 601 163.8 601C136.7 601 109.3 601 82 601C54.7 601 27.3 601 13.7 601L0 601Z" fill="#4c4c4c"></path><path d="M0 336L13.7 333.5C27.3 331 54.7 326 82 322.7C109.3 319.3 136.7 317.7 163.8 318.5C191 319.3 218 322.7 245.2 313C272.3 303.3 299.7 280.7 327 278.2C354.3 275.7 381.7 293.3 409 293.7C436.3 294 463.7 277 491 274C518.3 271 545.7 282 573 297C600.3 312 627.7 331 654.8 332.2C682 333.3 709 316.7 736.2 306.7C763.3 296.7 790.7 293.3 818 301.7C845.3 310 872.7 330 886.3 340L900 350L900 601L886.3 601C872.7 601 845.3 601 818 601C790.7 601 763.3 601 736.2 601C709 601 682 601 654.8 601C627.7 601 600.3 601 573 601C545.7 601 518.3 601 491 601C463.7 601 436.3 601 409 601C381.7 601 354.3 601 327 601C299.7 601 272.3 601 245.2 601C218 601 191 601 163.8 601C136.7 601 109.3 601 82 601C54.7 601 27.3 601 13.7 601L0 601Z" fill="#515151"></path><path d="M0 382L13.7 373.8C27.3 365.7 54.7 349.3 82 339.7C109.3 330 136.7 327 163.8 329.2C191 331.3 218 338.7 245.2 335.8C272.3 333 299.7 320 327 322.7C354.3 325.3 381.7 343.7 409 349.2C436.3 354.7 463.7 347.3 491 337C518.3 326.7 545.7 313.3 573 308.3C600.3 303.3 627.7 306.7 654.8 309.2C682 311.7 709 313.3 736.2 326.2C763.3 339 790.7 363 818 359.2C845.3 355.3 872.7 323.7 886.3 307.8L900 292L900 601L886.3 601C872.7 601 845.3 601 818 601C790.7 601 763.3 601 736.2 601C709 601 682 601 654.8 601C627.7 601 600.3 601 573 601C545.7 601 518.3 601 491 601C463.7 601 436.3 601 409 601C381.7 601 354.3 601 327 601C299.7 601 272.3 601 245.2 601C218 601 191 601 163.8 601C136.7 601 109.3 601 82 601C54.7 601 27.3 601 13.7 601L0 601Z" fill="#565656"></path><path d="M0 368L13.7 370.3C27.3 372.7 54.7 377.3 82 372.5C109.3 367.7 136.7 353.3 163.8 358.5C191 363.7 218 388.3 245.2 392.8C272.3 397.3 299.7 381.7 327 382.3C354.3 383 381.7 400 409 400.7C436.3 401.3 463.7 385.7 491 373C518.3 360.3 545.7 350.7 573 346C600.3 341.3 627.7 341.7 654.8 342C682 342.3 709 342.7 736.2 347.5C763.3 352.3 790.7 361.7 818 369.8C845.3 378 872.7 385 886.3 388.5L900 392L900 601L886.3 601C872.7 601 845.3 601 818 601C790.7 601 763.3 601 736.2 601C709 601 682 601 654.8 601C627.7 601 600.3 601 573 601C545.7 601 518.3 601 491 601C463.7 601 436.3 601 409 601C381.7 601 354.3 601 327 601C299.7 601 272.3 601 245.2 601C218 601 191 601 163.8 601C136.7 601 109.3 601 82 601C54.7 601 27.3 601 13.7 601L0 601Z" fill="#5c5c5c"></path><path d="M0 380L13.7 391.3C27.3 402.7 54.7 425.3 82 435.5C109.3 445.7 136.7 443.3 163.8 431.7C191 420 218 399 245.2 399.3C272.3 399.7 299.7 421.3 327 426.2C354.3 431 381.7 419 409 407.5C436.3 396 463.7 385 491 383.2C518.3 381.3 545.7 388.7 573 396.8C600.3 405 627.7 414 654.8 422.3C682 430.7 709 438.3 736.2 436.5C763.3 434.7 790.7 423.3 818 414.3C845.3 405.3 872.7 398.7 886.3 395.3L900 392L900 601L886.3 601C872.7 601 845.3 601 818 601C790.7 601 763.3 601 736.2 601C709 601 682 601 654.8 601C627.7 601 600.3 601 573 601C545.7 601 518.3 601 491 601C463.7 601 436.3 601 409 601C381.7 601 354.3 601 327 601C299.7 601 272.3 601 245.2 601C218 601 191 601 163.8 601C136.7 601 109.3 601 82 601C54.7 601 27.3 601 13.7 601L0 601Z" fill="#616161"></path><path d="M0 432L13.7 428.3C27.3 424.7 54.7 417.3 82 421.2C109.3 425 136.7 440 163.8 444.3C191 448.7 218 442.3 245.2 441C272.3 439.7 299.7 443.3 327 442.5C354.3 441.7 381.7 436.3 409 436.7C436.3 437 463.7 443 491 447.7C518.3 452.3 545.7 455.7 573 460C600.3 464.3 627.7 469.7 654.8 470.8C682 472 709 469 736.2 461.8C763.3 454.7 790.7 443.3 818 438C845.3 432.7 872.7 433.3 886.3 433.7L900 434L900 601L886.3 601C872.7 601 845.3 601 818 601C790.7 601 763.3 601 736.2 601C709 601 682 601 654.8 601C627.7 601 600.3 601 573 601C545.7 601 518.3 601 491 601C463.7 601 436.3 601 409 601C381.7 601 354.3 601 327 601C299.7 601 272.3 601 245.2 601C218 601 191 601 163.8 601C136.7 601 109.3 601 82 601C54.7 601 27.3 601 13.7 601L0 601Z" fill="#676767"></path><path d="M0 462L13.7 463.2C27.3 464.3 54.7 466.7 82 465.2C109.3 463.7 136.7 458.3 163.8 457.8C191 457.3 218 461.7 245.2 462.7C272.3 463.7 299.7 461.3 327 465.7C354.3 470 381.7 481 409 485.3C436.3 489.7 463.7 487.3 491 489.5C518.3 491.7 545.7 498.3 573 496.3C600.3 494.3 627.7 483.7 654.8 484.5C682 485.3 709 497.7 736.2 497.3C763.3 497 790.7 484 818 478C845.3 472 872.7 473 886.3 473.5L900 474L900 601L886.3 601C872.7 601 845.3 601 818 601C790.7 601 763.3 601 736.2 601C709 601 682 601 654.8 601C627.7 601 600.3 601 573 601C545.7 601 518.3 601 491 601C463.7 601 436.3 601 409 601C381.7 601 354.3 601 327 601C299.7 601 272.3 601 245.2 601C218 601 191 601 163.8 601C136.7 601 109.3 601 82 601C54.7 601 27.3 601 13.7 601L0 601Z" fill="#6d6d6d"></path><path d="M0 508L13.7 513C27.3 518 54.7 528 82 530.2C109.3 532.3 136.7 526.7 163.8 527.8C191 529 218 537 245.2 532.3C272.3 527.7 299.7 510.3 327 510C354.3 509.7 381.7 526.3 409 531C436.3 535.7 463.7 528.3 491 521.5C518.3 514.7 545.7 508.3 573 504.2C600.3 500 627.7 498 654.8 499.7C682 501.3 709 506.7 736.2 513.3C763.3 520 790.7 528 818 530.7C845.3 533.3 872.7 530.7 886.3 529.3L900 528L900 601L886.3 601C872.7 601 845.3 601 818 601C790.7 601 763.3 601 736.2 601C709 601 682 601 654.8 601C627.7 601 600.3 601 573 601C545.7 601 518.3 601 491 601C463.7 601 436.3 601 409 601C381.7 601 354.3 601 327 601C299.7 601 272.3 601 245.2 601C218 601 191 601 163.8 601C136.7 601 109.3 601 82 601C54.7 601 27.3 601 13.7 601L0 601Z" fill="#727272"></path><path d="M0 563L13.7 560.5C27.3 558 54.7 553 82 552.2C109.3 551.3 136.7 554.7 163.8 557.8C191 561 218 564 245.2 562.2C272.3 560.3 299.7 553.7 327 550.5C354.3 547.3 381.7 547.7 409 546.8C436.3 546 463.7 544 491 542.5C518.3 541 545.7 540 573 541.7C600.3 543.3 627.7 547.7 654.8 546.8C682 546 709 540 736.2 540.8C763.3 541.7 790.7 549.3 818 552.8C845.3 556.3 872.7 555.7 886.3 555.3L900 555L900 601L886.3 601C872.7 601 845.3 601 818 601C790.7 601 763.3 601 736.2 601C709 601 682 601 654.8 601C627.7 601 600.3 601 573 601C545.7 601 518.3 601 491 601C463.7 601 436.3 601 409 601C381.7 601 354.3 601 327 601C299.7 601 272.3 601 245.2 601C218 601 191 601 163.8 601C136.7 601 109.3 601 82 601C54.7 601 27.3 601 13.7 601L0 601Z" fill="#787878"></path></svg>