<svg id="visual" viewBox="0 0 900 600" width="900" height="600" xmlns="http://www.w3.org/2000/svg" xmlns:xlink="http://www.w3.org/1999/xlink" version="1.1"><rect x="0" y="0" width="900" height="600" fill="#000000"></rect><path d="M0 241L21.5 238.7C43 236.3 86 231.7 128.8 227.2C171.7 222.7 214.3 218.3 257.2 220.3C300 222.3 343 230.7 385.8 229.3C428.7 228 471.3 217 514.2 213.5C557 210 600 214 642.8 224.8C685.7 235.7 728.3 253.3 771.2 247.3C814 241.3 857 211.7 878.5 196.8L900 182L900 601L878.5 601C857 601 814 601 771.2 601C728.3 601 685.7 601 642.8 601C600 601 557 601 514.2 601C471.3 601 428.7 601 385.8 601C343 601 300 601 257.2 601C214.3 601 171.7 601 128.8 601C86 601 43 601 21.5 601L0 601Z" fill="#828282"></path><path d="M0 280L21.5 287.8C43 295.7 86 311.3 128.8 302.3C171.7 293.3 214.3 259.7 257.2 256.3C300 253 343 280 385.8 281.8C428.7 283.7 471.3 260.3 514.2 261.2C557 262 600 287 642.8 300.2C685.7 313.3 728.3 314.7 771.2 299.2C814 283.7 857 251.3 878.5 235.2L900 219L900 601L878.5 601C857 601 814 601 771.2 601C728.3 601 685.7 601 642.8 601C600 601 557 601 514.2 601C471.3 601 428.7 601 385.8 601C343 601 300 601 257.2 601C214.3 601 171.7 601 128.8 601C86 601 43 601 21.5 601L0 601Z" fill="#757575"></path><path d="M0 328L21.5 332C43 336 86 344 128.8 343.3C171.7 342.7 214.3 333.3 257.2 318C300 302.7 343 281.3 385.8 280.2C428.7 279 471.3 298 514.2 299C557 300 600 283 642.8 273.5C685.7 264 728.3 262 771.2 266.5C814 271 857 282 878.5 287.5L900 293L900 601L878.5 601C857 601 814 601 771.2 601C728.3 601 685.7 601 642.8 601C600 601 557 601 514.2 601C471.3 601 428.7 601 385.8 601C343 601 300 601 257.2 601C214.3 601 171.7 601 128.8 601C86 601 43 601 21.5 601L0 601Z" fill="#686868"></path><path d="M0 305L21.5 313.8C43 322.7 86 340.3 128.8 347.3C171.7 354.3 214.3 350.7 257.2 346.3C300 342 343 337 385.8 336.2C428.7 335.3 471.3 338.7 514.2 332.5C557 326.3 600 310.7 642.8 310.8C685.7 311 728.3 327 771.2 333C814 339 857 335 878.5 333L900 331L900 601L878.5 601C857 601 814 601 771.2 601C728.3 601 685.7 601 642.8 601C600 601 557 601 514.2 601C471.3 601 428.7 601 385.8 601C343 601 300 601 257.2 601C214.3 601 171.7 601 128.8 601C86 601 43 601 21.5 601L0 601Z" fill="#5c5c5c"></path><path d="M0 355L21.5 362.8C43 370.7 86 386.3 128.8 388C171.7 389.7 214.3 377.3 257.2 366C300 354.7 343 344.3 385.8 344.3C428.7 344.3 471.3 354.7 514.2 360.8C557 367 600 369 642.8 373C685.7 377 728.3 383 771.2 376.2C814 369.3 857 349.7 878.5 339.8L900 330L900 601L878.5 601C857 601 814 601 771.2 601C728.3 601 685.7 601 642.8 601C600 601 557 601 514.2 601C471.3 601 428.7 601 385.8 601C343 601 300 601 257.2 601C214.3 601 171.7 601 128.8 601C86 601 43 601 21.5 601L0 601Z" fill="#505050"></path><path d="M0 424L21.5 424.8C43 425.7 86 427.3 128.8 417.7C171.7 408 214.3 387 257.2 384.7C300 382.3 343 398.7 385.8 407.3C428.7 416 471.3 417 514.2 416.2C557 415.3 600 412.7 642.8 414.8C685.7 417 728.3 424 771.2 428.7C814 433.3 857 435.7 878.5 436.8L900 438L900 601L878.5 601C857 601 814 601 771.2 601C728.3 601 685.7 601 642.8 601C600 601 557 601 514.2 601C471.3 601 428.7 601 385.8 601C343 601 300 601 257.2 601C214.3 601 171.7 601 128.8 601C86 601 43 601 21.5 601L0 601Z" fill="#444444"></path><path d="M0 457L21.5 451.3C43 445.7 86 434.3 128.8 433.3C171.7 432.3 214.3 441.7 257.2 445.5C300 449.3 343 447.7 385.8 443C428.7 438.3 471.3 430.7 514.2 433.3C557 436 600 449 642.8 444.7C685.7 440.3 728.3 418.7 771.2 411.8C814 405 857 413 878.5 417L900 421L900 601L878.5 601C857 601 814 601 771.2 601C728.3 601 685.7 601 642.8 601C600 601 557 601 514.2 601C471.3 601 428.7 601 385.8 601C343 601 300 601 257.2 601C214.3 601 171.7 601 128.8 601C86 601 43 601 21.5 601L0 601Z" fill="#393939"></path><path d="M0 441L21.5 444.8C43 448.7 86 456.3 128.8 465.2C171.7 474 214.3 484 257.2 482.8C300 481.7 343 469.3 385.8 463C428.7 456.7 471.3 456.3 514.2 457.5C557 458.7 600 461.3 642.8 467.3C685.7 473.3 728.3 482.7 771.2 483.3C814 484 857 476 878.5 472L900 468L900 601L878.5 601C857 601 814 601 771.2 601C728.3 601 685.7 601 642.8 601C600 601 557 601 514.2 601C471.3 601 428.7 601 385.8 601C343 601 300 601 257.2 601C214.3 601 171.7 601 128.8 601C86 601 43 601 21.5 601L0 601Z" fill="#2e2e2e"></path><path d="M0 472L21.5 473.5C43 475 86 478 128.8 479C171.7 480 214.3 479 257.2 481.3C300 483.7 343 489.3 385.8 489.3C428.7 489.3 471.3 483.7 514.2 481.5C557 479.3 600 480.7 642.8 483.5C685.7 486.3 728.3 490.7 771.2 489.7C814 488.7 857 482.3 878.5 479.2L900 476L900 601L878.5 601C857 601 814 601 771.2 601C728.3 601 685.7 601 642.8 601C600 601 557 601 514.2 601C471.3 601 428.7 601 385.8 601C343 601 300 601 257.2 601C214.3 601 171.7 601 128.8 601C86 601 43 601 21.5 601L0 601Z" fill="#232323"></path><path d="M0 521L21.5 523.8C43 526.7 86 532.3 128.8 530.5C171.7 528.7 214.3 519.3 257.2 520.7C300 522 343 534 385.8 539.7C428.7 545.3 471.3 544.7 514.2 543C557 541.3 600 538.7 642.8 538.8C685.7 539 728.3 542 771.2 539.8C814 537.7 857 530.3 878.5 526.7L900 523L900 601L878.5 601C857 601 814 601 771.2 601C728.3 601 685.7 601 642.8 601C600 601 557 601 514.2 601C471.3 601 428.7 601 385.8 601C343 601 300 601 257.2 601C214.3 601 171.7 601 128.8 601C86 601 43 601 21.5 601L0 601Z" fill="#191919"></path><path d="M0 546L21.5 545.5C43 545 86 544 128.8 544.5C171.7 545 214.3 547 257.2 550.5C300 554 343 559 385.8 561.5C428.7 564 471.3 564 514.2 560.8C557 557.7 600 551.3 642.8 552.8C685.7 554.3 728.3 563.7 771.2 565.7C814 567.7 857 562.3 878.5 559.7L900 557L900 601L878.5 601C857 601 814 601 771.2 601C728.3 601 685.7 601 642.8 601C600 601 557 601 514.2 601C471.3 601 428.7 601 385.8 601C343 601 300 601 257.2 601C214.3 601 171.7 601 128.8 601C86 601 43 601 21.5 601L0 601Z" fill="#0d0d0d"></path></svg>