<svg id="visual" viewBox="0 0 900 600" width="900" height="600" xmlns="http://www.w3.org/2000/svg" xmlns:xlink="http://www.w3.org/1999/xlink" version="1.1"><rect x="0" y="0" width="900" height="600" fill="#000000"></rect><path d="M0 140L25 137.3C50 134.7 100 129.3 150 138.3C200 147.3 250 170.7 300 187C350 203.3 400 212.7 450 217.3C500 222 550 222 600 231.2C650 240.3 700 258.7 750 263C800 267.3 850 257.7 875 252.8L900 248L900 601L875 601C850 601 800 601 750 601C700 601 650 601 600 601C550 601 500 601 450 601C400 601 350 601 300 601C250 601 200 601 150 601C100 601 50 601 25 601L0 601Z" fill="#4f4f4f"></path><path d="M0 360L25 347.8C50 335.7 100 311.3 150 309.3C200 307.3 250 327.7 300 324.7C350 321.7 400 295.3 450 285.5C500 275.7 550 282.3 600 293C650 303.7 700 318.3 750 315C800 311.7 850 290.3 875 279.7L900 269L900 601L875 601C850 601 800 601 750 601C700 601 650 601 600 601C550 601 500 601 450 601C400 601 350 601 300 601C250 601 200 601 150 601C100 601 50 601 25 601L0 601Z" fill="#676767"></path><path d="M0 363L25 372.3C50 381.7 100 400.3 150 408.5C200 416.7 250 414.3 300 397.5C350 380.7 400 349.3 450 349.5C500 349.7 550 381.3 600 385.3C650 389.3 700 365.7 750 348.8C800 332 850 322 875 317L900 312L900 601L875 601C850 601 800 601 750 601C700 601 650 601 600 601C550 601 500 601 450 601C400 601 350 601 300 601C250 601 200 601 150 601C100 601 50 601 25 601L0 601Z" fill="#808080"></path><path d="M0 472L25 474.3C50 476.7 100 481.3 150 474.2C200 467 250 448 300 448.5C350 449 400 469 450 470.7C500 472.3 550 455.7 600 446.8C650 438 700 437 750 453.7C800 470.3 850 504.7 875 521.8L900 539L900 601L875 601C850 601 800 601 750 601C700 601 650 601 600 601C550 601 500 601 450 601C400 601 350 601 300 601C250 601 200 601 150 601C100 601 50 601 25 601L0 601Z" fill="#9a9a9a"></path></svg>