<svg id="visual" viewBox="0 0 900 600" width="900" height="600" xmlns="http://www.w3.org/2000/svg" xmlns:xlink="http://www.w3.org/1999/xlink" version="1.1"><rect x="0" y="0" width="900" height="600" fill="#000000"></rect><path d="M0 255L129 255L129 263L257 263L257 315L386 315L386 294L514 294L514 343L643 343L643 366L771 366L771 324L900 324L900 325L900 601L900 601L771 601L771 601L643 601L643 601L514 601L514 601L386 601L386 601L257 601L257 601L129 601L129 601L0 601Z" fill="#1f1f1f"></path><path d="M0 376L129 376L129 352L257 352L257 422L386 422L386 346L514 346L514 405L643 405L643 396L771 396L771 365L900 365L900 367L900 601L900 601L771 601L771 601L643 601L643 601L514 601L514 601L386 601L386 601L257 601L257 601L129 601L129 601L0 601Z" fill="#575757"></path><path d="M0 535L129 535L129 513L257 513L257 450L386 450L386 500L514 500L514 526L643 526L643 475L771 475L771 509L900 509L900 500L900 601L900 601L771 601L771 601L643 601L643 601L514 601L514 601L386 601L386 601L257 601L257 601L129 601L129 601L0 601Z" fill="#969696"></path></svg>