<svg id="visual" viewBox="0 0 900 600" width="900" height="600" xmlns="http://www.w3.org/2000/svg" xmlns:xlink="http://www.w3.org/1999/xlink" version="1.1"><rect x="0" y="0" width="900" height="600" fill="#232323"></rect><path d="M0 175L64 170L129 202L193 178L257 197L321 187L386 187L450 170L514 198L579 177L643 198L707 198L771 182L836 180L900 202L900 601L836 601L771 601L707 601L643 601L579 601L514 601L450 601L386 601L321 601L257 601L193 601L129 601L64 601L0 601Z" fill="#626262"></path><path d="M0 246L64 242L129 253L193 228L257 258L321 242L386 257L450 239L514 226L579 250L643 245L707 253L771 256L836 230L900 258L900 601L836 601L771 601L707 601L643 601L579 601L514 601L450 601L386 601L321 601L257 601L193 601L129 601L64 601L0 601Z" fill="#6d6d6d"></path><path d="M0 297L64 291L129 296L193 303L257 308L321 306L386 307L450 303L514 304L579 290L643 289L707 285L771 298L836 285L900 291L900 601L836 601L771 601L707 601L643 601L579 601L514 601L450 601L386 601L321 601L257 601L193 601L129 601L64 601L0 601Z" fill="#787878"></path><path d="M0 346L64 352L129 364L193 361L257 350L321 359L386 345L450 359L514 357L579 350L643 356L707 360L771 348L836 358L900 358L900 601L836 601L771 601L707 601L643 601L579 601L514 601L450 601L386 601L321 601L257 601L193 601L129 601L64 601L0 601Z" fill="#838383"></path><path d="M0 422L64 409L129 403L193 405L257 411L321 420L386 421L450 403L514 409L579 403L643 409L707 422L771 420L836 401L900 420L900 601L836 601L771 601L707 601L643 601L579 601L514 601L450 601L386 601L321 601L257 601L193 601L129 601L64 601L0 601Z" fill="#8e8e8e"></path><path d="M0 466L64 466L129 470L193 475L257 475L321 476L386 470L450 463L514 474L579 464L643 464L707 460L771 461L836 470L900 468L900 601L836 601L771 601L707 601L643 601L579 601L514 601L450 601L386 601L321 601L257 601L193 601L129 601L64 601L0 601Z" fill="#9a9a9a"></path><path d="M0 521L64 528L129 529L193 529L257 527L321 527L386 521L450 519L514 519L579 523L643 522L707 531L771 531L836 522L900 523L900 601L836 601L771 601L707 601L643 601L579 601L514 601L450 601L386 601L321 601L257 601L193 601L129 601L64 601L0 601Z" fill="#a6a6a6"></path></svg>