<svg id="visual" viewBox="0 0 900 600" width="900" height="600" xmlns="http://www.w3.org/2000/svg" xmlns:xlink="http://www.w3.org/1999/xlink" version="1.1"><rect x="0" y="0" width="900" height="600" fill="#000000"></rect><path d="M0 217L21.5 231C43 245 86 273 128.8 272C171.7 271 214.3 241 257.2 238C300 235 343 259 385.8 259.2C428.7 259.3 471.3 235.7 514.2 219.5C557 203.3 600 194.7 642.8 206.8C685.7 219 728.3 252 771.2 257.7C814 263.3 857 241.7 878.5 230.8L900 220L900 601L878.5 601C857 601 814 601 771.2 601C728.3 601 685.7 601 642.8 601C600 601 557 601 514.2 601C471.3 601 428.7 601 385.8 601C343 601 300 601 257.2 601C214.3 601 171.7 601 128.8 601C86 601 43 601 21.5 601L0 601Z" fill="#828282"></path><path d="M0 323L21.5 310.2C43 297.3 86 271.7 128.8 261.7C171.7 251.7 214.3 257.3 257.2 271C300 284.7 343 306.3 385.8 308.8C428.7 311.3 471.3 294.7 514.2 283.7C557 272.7 600 267.3 642.8 268.3C685.7 269.3 728.3 276.7 771.2 275.8C814 275 857 266 878.5 261.5L900 257L900 601L878.5 601C857 601 814 601 771.2 601C728.3 601 685.7 601 642.8 601C600 601 557 601 514.2 601C471.3 601 428.7 601 385.8 601C343 601 300 601 257.2 601C214.3 601 171.7 601 128.8 601C86 601 43 601 21.5 601L0 601Z" fill="#727272"></path><path d="M0 353L21.5 348.3C43 343.7 86 334.3 128.8 324.5C171.7 314.7 214.3 304.3 257.2 311.2C300 318 343 342 385.8 352C428.7 362 471.3 358 514.2 342.8C557 327.7 600 301.3 642.8 303C685.7 304.7 728.3 334.3 771.2 344.5C814 354.7 857 345.3 878.5 340.7L900 336L900 601L878.5 601C857 601 814 601 771.2 601C728.3 601 685.7 601 642.8 601C600 601 557 601 514.2 601C471.3 601 428.7 601 385.8 601C343 601 300 601 257.2 601C214.3 601 171.7 601 128.8 601C86 601 43 601 21.5 601L0 601Z" fill="#626262"></path><path d="M0 358L21.5 363.7C43 369.3 86 380.7 128.8 373.2C171.7 365.7 214.3 339.3 257.2 333C300 326.7 343 340.3 385.8 347.2C428.7 354 471.3 354 514.2 347.3C557 340.7 600 327.3 642.8 323C685.7 318.7 728.3 323.3 771.2 336.3C814 349.3 857 370.7 878.5 381.3L900 392L900 601L878.5 601C857 601 814 601 771.2 601C728.3 601 685.7 601 642.8 601C600 601 557 601 514.2 601C471.3 601 428.7 601 385.8 601C343 601 300 601 257.2 601C214.3 601 171.7 601 128.8 601C86 601 43 601 21.5 601L0 601Z" fill="#535353"></path><path d="M0 403L21.5 402.7C43 402.3 86 401.7 128.8 399C171.7 396.3 214.3 391.7 257.2 396.2C300 400.7 343 414.3 385.8 418.7C428.7 423 471.3 418 514.2 415.5C557 413 600 413 642.8 408.8C685.7 404.7 728.3 396.3 771.2 399.7C814 403 857 418 878.5 425.5L900 433L900 601L878.5 601C857 601 814 601 771.2 601C728.3 601 685.7 601 642.8 601C600 601 557 601 514.2 601C471.3 601 428.7 601 385.8 601C343 601 300 601 257.2 601C214.3 601 171.7 601 128.8 601C86 601 43 601 21.5 601L0 601Z" fill="#444444"></path><path d="M0 429L21.5 430.7C43 432.3 86 435.7 128.8 440C171.7 444.3 214.3 449.7 257.2 453.7C300 457.7 343 460.3 385.8 461.2C428.7 462 471.3 461 514.2 456.3C557 451.7 600 443.3 642.8 444.3C685.7 445.3 728.3 455.7 771.2 455.5C814 455.3 857 444.7 878.5 439.3L900 434L900 601L878.5 601C857 601 814 601 771.2 601C728.3 601 685.7 601 642.8 601C600 601 557 601 514.2 601C471.3 601 428.7 601 385.8 601C343 601 300 601 257.2 601C214.3 601 171.7 601 128.8 601C86 601 43 601 21.5 601L0 601Z" fill="#363636"></path><path d="M0 484L21.5 484.8C43 485.7 86 487.3 128.8 489C171.7 490.7 214.3 492.3 257.2 489.5C300 486.7 343 479.3 385.8 479.7C428.7 480 471.3 488 514.2 485.2C557 482.3 600 468.7 642.8 469C685.7 469.3 728.3 483.7 771.2 487.5C814 491.3 857 484.7 878.5 481.3L900 478L900 601L878.5 601C857 601 814 601 771.2 601C728.3 601 685.7 601 642.8 601C600 601 557 601 514.2 601C471.3 601 428.7 601 385.8 601C343 601 300 601 257.2 601C214.3 601 171.7 601 128.8 601C86 601 43 601 21.5 601L0 601Z" fill="#282828"></path><path d="M0 490L21.5 489.8C43 489.7 86 489.3 128.8 489C171.7 488.7 214.3 488.3 257.2 487.7C300 487 343 486 385.8 494.8C428.7 503.7 471.3 522.3 514.2 531.5C557 540.7 600 540.3 642.8 533C685.7 525.7 728.3 511.3 771.2 511.3C814 511.3 857 525.7 878.5 532.8L900 540L900 601L878.5 601C857 601 814 601 771.2 601C728.3 601 685.7 601 642.8 601C600 601 557 601 514.2 601C471.3 601 428.7 601 385.8 601C343 601 300 601 257.2 601C214.3 601 171.7 601 128.8 601C86 601 43 601 21.5 601L0 601Z" fill="#1b1b1b"></path><path d="M0 541L21.5 538.7C43 536.3 86 531.7 128.8 537.2C171.7 542.7 214.3 558.3 257.2 565.5C300 572.7 343 571.3 385.8 565.7C428.7 560 471.3 550 514.2 549.8C557 549.7 600 559.3 642.8 563.5C685.7 567.7 728.3 566.3 771.2 565C814 563.7 857 562.3 878.5 561.7L900 561L900 601L878.5 601C857 601 814 601 771.2 601C728.3 601 685.7 601 642.8 601C600 601 557 601 514.2 601C471.3 601 428.7 601 385.8 601C343 601 300 601 257.2 601C214.3 601 171.7 601 128.8 601C86 601 43 601 21.5 601L0 601Z" fill="#0d0d0d"></path></svg>