<svg id="visual" viewBox="0 0 900 600" width="900" height="600" xmlns="http://www.w3.org/2000/svg" xmlns:xlink="http://www.w3.org/1999/xlink" version="1.1"><g stroke-width="1" stroke-linejoin="bevel"><path d="M507 282L573 225L514 247Z" fill="#000000" stroke="#000000"></path><path d="M507 282L600 329L573 225Z" fill="#292929" stroke="#292929"></path><path d="M470 402L600 382L600 329Z" fill="#121212" stroke="#121212"></path><path d="M600 382L651 348L600 329Z" fill="#4e4e4e" stroke="#4e4e4e"></path><path d="M600 329L714 314L573 225Z" fill="#838383" stroke="#838383"></path><path d="M573 225L524 150L514 247Z" fill="#1d1d1d" stroke="#1d1d1d"></path><path d="M514 247L390 279L507 282Z" fill="#353535" stroke="#353535"></path><path d="M413 381L470 402L507 282Z" fill="#5a5a5a" stroke="#5a5a5a"></path><path d="M507 282L470 402L600 329Z" fill="#4e4e4e" stroke="#4e4e4e"></path><path d="M796 410L714 314L651 348Z" fill="#5a5a5a" stroke="#5a5a5a"></path><path d="M651 348L714 314L600 329Z" fill="#414141" stroke="#414141"></path><path d="M573 225L643 117L524 150Z" fill="#757575" stroke="#757575"></path><path d="M714 314L704 197L573 225Z" fill="#414141" stroke="#414141"></path><path d="M446 146L390 279L514 247Z" fill="#4e4e4e" stroke="#4e4e4e"></path><path d="M524 150L446 146L514 247Z" fill="#414141" stroke="#414141"></path><path d="M704 197L643 117L573 225Z" fill="#1d1d1d" stroke="#1d1d1d"></path><path d="M524 150L556 56L446 146Z" fill="#121212" stroke="#121212"></path><path d="M390 279L413 381L507 282Z" fill="#000000" stroke="#000000"></path><path d="M714 314L741 297L704 197Z" fill="#4e4e4e" stroke="#4e4e4e"></path><path d="M413 381L459 444L470 402Z" fill="#121212" stroke="#121212"></path><path d="M470 402L459 444L600 382Z" fill="#1d1d1d" stroke="#1d1d1d"></path><path d="M343 233L347 256L390 279Z" fill="#292929" stroke="#292929"></path><path d="M390 279L263 362L413 381Z" fill="#686868" stroke="#686868"></path><path d="M643 117L556 56L524 150Z" fill="#292929" stroke="#292929"></path><path d="M446 146L343 233L390 279Z" fill="#353535" stroke="#353535"></path><path d="M459 444L653 499L600 382Z" fill="#353535" stroke="#353535"></path><path d="M600 382L653 499L651 348Z" fill="#000000" stroke="#000000"></path><path d="M714 314L796 410L741 297Z" fill="#414141" stroke="#414141"></path><path d="M324 157L312 204L343 233Z" fill="#414141" stroke="#414141"></path><path d="M343 233L312 204L347 256Z" fill="#838383" stroke="#838383"></path><path d="M310 537L459 444L413 381Z" fill="#5a5a5a" stroke="#5a5a5a"></path><path d="M324 157L343 233L446 146Z" fill="#121212" stroke="#121212"></path><path d="M367 0L324 157L446 146Z" fill="#838383" stroke="#838383"></path><path d="M745 488L796 410L651 348Z" fill="#1d1d1d" stroke="#1d1d1d"></path><path d="M741 297L837 141L704 197Z" fill="#838383" stroke="#838383"></path><path d="M644 0L493 0L556 56Z" fill="#1d1d1d" stroke="#1d1d1d"></path><path d="M556 56L493 0L446 146Z" fill="#353535" stroke="#353535"></path><path d="M653 499L745 488L651 348Z" fill="#838383" stroke="#838383"></path><path d="M652 0L644 0L643 117Z" fill="#757575" stroke="#757575"></path><path d="M643 117L644 0L556 56Z" fill="#292929" stroke="#292929"></path><path d="M652 0L643 117L820 0Z" fill="#414141" stroke="#414141"></path><path d="M837 141L643 117L704 197Z" fill="#1d1d1d" stroke="#1d1d1d"></path><path d="M310 537L457 547L459 444Z" fill="#000000" stroke="#000000"></path><path d="M459 444L457 547L653 499Z" fill="#4e4e4e" stroke="#4e4e4e"></path><path d="M653 499L761 541L745 488Z" fill="#5a5a5a" stroke="#5a5a5a"></path><path d="M263 362L390 279L347 256Z" fill="#353535" stroke="#353535"></path><path d="M229 415L263 362L199 354Z" fill="#686868" stroke="#686868"></path><path d="M312 204L263 362L347 256Z" fill="#4e4e4e" stroke="#4e4e4e"></path><path d="M854 147L837 141L741 297Z" fill="#292929" stroke="#292929"></path><path d="M900 345L854 147L741 297Z" fill="#686868" stroke="#686868"></path><path d="M837 141L820 0L643 117Z" fill="#1d1d1d" stroke="#1d1d1d"></path><path d="M493 0L367 0L446 146Z" fill="#121212" stroke="#121212"></path><path d="M199 354L263 362L312 204Z" fill="#121212" stroke="#121212"></path><path d="M900 535L900 432L796 410Z" fill="#686868" stroke="#686868"></path><path d="M660 600L761 541L653 499Z" fill="#757575" stroke="#757575"></path><path d="M457 547L653 600L653 499Z" fill="#686868" stroke="#686868"></path><path d="M653 600L660 600L653 499Z" fill="#000000" stroke="#000000"></path><path d="M367 600L452 600L457 547Z" fill="#121212" stroke="#121212"></path><path d="M457 547L452 600L653 600Z" fill="#121212" stroke="#121212"></path><path d="M900 432L900 345L796 410Z" fill="#353535" stroke="#353535"></path><path d="M796 410L900 345L741 297Z" fill="#757575" stroke="#757575"></path><path d="M199 354L312 204L140 280Z" fill="#4e4e4e" stroke="#4e4e4e"></path><path d="M263 362L310 537L413 381Z" fill="#5a5a5a" stroke="#5a5a5a"></path><path d="M229 415L310 537L263 362Z" fill="#1d1d1d" stroke="#1d1d1d"></path><path d="M900 345L900 146L854 147Z" fill="#353535" stroke="#353535"></path><path d="M900 104L820 0L837 141Z" fill="#838383" stroke="#838383"></path><path d="M187 158L312 204L324 157Z" fill="#353535" stroke="#353535"></path><path d="M900 535L796 410L745 488Z" fill="#121212" stroke="#121212"></path><path d="M310 537L367 600L457 547Z" fill="#5a5a5a" stroke="#5a5a5a"></path><path d="M900 104L837 141L854 147Z" fill="#4e4e4e" stroke="#4e4e4e"></path><path d="M900 146L900 104L854 147Z" fill="#1d1d1d" stroke="#1d1d1d"></path><path d="M174 50L187 158L324 157Z" fill="#414141" stroke="#414141"></path><path d="M367 0L277 0L324 157Z" fill="#414141" stroke="#414141"></path><path d="M660 600L797 600L761 541Z" fill="#353535" stroke="#353535"></path><path d="M761 541L900 535L745 488Z" fill="#292929" stroke="#292929"></path><path d="M187 158L140 280L312 204Z" fill="#000000" stroke="#000000"></path><path d="M85 450L150 534L229 415Z" fill="#686868" stroke="#686868"></path><path d="M277 0L174 50L324 157Z" fill="#353535" stroke="#353535"></path><path d="M187 158L67 224L140 280Z" fill="#121212" stroke="#121212"></path><path d="M797 600L900 535L761 541Z" fill="#414141" stroke="#414141"></path><path d="M150 534L270 600L310 537Z" fill="#5a5a5a" stroke="#5a5a5a"></path><path d="M310 537L270 600L367 600Z" fill="#4e4e4e" stroke="#4e4e4e"></path><path d="M150 534L310 537L229 415Z" fill="#757575" stroke="#757575"></path><path d="M900 104L900 0L820 0Z" fill="#4e4e4e" stroke="#4e4e4e"></path><path d="M228 0L174 50L277 0Z" fill="#000000" stroke="#000000"></path><path d="M797 600L900 600L900 535Z" fill="#121212" stroke="#121212"></path><path d="M85 450L229 415L199 354Z" fill="#000000" stroke="#000000"></path><path d="M87 43L67 224L187 158Z" fill="#686868" stroke="#686868"></path><path d="M140 280L85 450L199 354Z" fill="#757575" stroke="#757575"></path><path d="M71 446L85 450L140 280Z" fill="#353535" stroke="#353535"></path><path d="M0 376L71 446L140 280Z" fill="#121212" stroke="#121212"></path><path d="M85 450L93 600L150 534Z" fill="#414141" stroke="#414141"></path><path d="M93 600L149 600L150 534Z" fill="#353535" stroke="#353535"></path><path d="M150 534L149 600L270 600Z" fill="#121212" stroke="#121212"></path><path d="M174 50L87 43L187 158Z" fill="#4e4e4e" stroke="#4e4e4e"></path><path d="M49 0L87 43L174 50Z" fill="#5a5a5a" stroke="#5a5a5a"></path><path d="M0 141L0 248L67 224Z" fill="#414141" stroke="#414141"></path><path d="M67 224L0 248L140 280Z" fill="#1d1d1d" stroke="#1d1d1d"></path><path d="M0 248L0 376L140 280Z" fill="#000000" stroke="#000000"></path><path d="M71 446L93 600L85 450Z" fill="#000000" stroke="#000000"></path><path d="M0 460L93 600L71 446Z" fill="#000000" stroke="#000000"></path><path d="M87 43L0 141L67 224Z" fill="#838383" stroke="#838383"></path><path d="M228 0L49 0L174 50Z" fill="#353535" stroke="#353535"></path><path d="M87 43L0 98L0 141Z" fill="#838383" stroke="#838383"></path><path d="M49 0L0 98L87 43Z" fill="#757575" stroke="#757575"></path><path d="M0 376L0 460L71 446Z" fill="#353535" stroke="#353535"></path><path d="M49 0L0 0L0 98Z" fill="#4e4e4e" stroke="#4e4e4e"></path><path d="M0 460L0 600L93 600Z" fill="#000000" stroke="#000000"></path></g></svg>