<svg id="visual" viewBox="0 0 900 600" width="900" height="600" xmlns="http://www.w3.org/2000/svg" xmlns:xlink="http://www.w3.org/1999/xlink" version="1.1"><path d="M0 277L8.8 246C17.7 215 35.3 153 53 136C70.7 119 88.3 147 106 152C123.7 157 141.3 139 159 139C176.7 139 194.3 157 212 178C229.7 199 247.3 223 265 220C282.7 217 300.3 187 318 185C335.7 183 353.3 209 371 229C388.7 249 406.3 263 423.8 260C441.3 257 458.7 237 476.2 223C493.7 209 511.3 201 529 199C546.7 197 564.3 201 582 191C599.7 181 617.3 157 635 140C652.7 123 670.3 113 688 130C705.7 147 723.3 191 741 215C758.7 239 776.3 243 794 227C811.7 211 829.3 175 847 167C864.7 159 882.3 179 891.2 189L900 199L900 0L891.2 0C882.3 0 864.7 0 847 0C829.3 0 811.7 0 794 0C776.3 0 758.7 0 741 0C723.3 0 705.7 0 688 0C670.3 0 652.7 0 635 0C617.3 0 599.7 0 582 0C564.3 0 546.7 0 529 0C511.3 0 493.7 0 476.2 0C458.7 0 441.3 0 423.8 0C406.3 0 388.7 0 371 0C353.3 0 335.7 0 318 0C300.3 0 282.7 0 265 0C247.3 0 229.7 0 212 0C194.3 0 176.7 0 159 0C141.3 0 123.7 0 106 0C88.3 0 70.7 0 53 0C35.3 0 17.7 0 8.8 0L0 0Z" fill="#232323"></path><path d="M0 331L8.8 304C17.7 277 35.3 223 53 210C70.7 197 88.3 225 106 223C123.7 221 141.3 189 159 189C176.7 189 194.3 221 212 243C229.7 265 247.3 277 265 269C282.7 261 300.3 233 318 236C335.7 239 353.3 273 371 292C388.7 311 406.3 315 423.8 311C441.3 307 458.7 295 476.2 284C493.7 273 511.3 263 529 262C546.7 261 564.3 269 582 263C599.7 257 617.3 237 635 224C652.7 211 670.3 205 688 217C705.7 229 723.3 259 741 277C758.7 295 776.3 301 794 289C811.7 277 829.3 247 847 236C864.7 225 882.3 233 891.2 237L900 241L900 197L891.2 187C882.3 177 864.7 157 847 165C829.3 173 811.7 209 794 225C776.3 241 758.7 237 741 213C723.3 189 705.7 145 688 128C670.3 111 652.7 121 635 138C617.3 155 599.7 179 582 189C564.3 199 546.7 195 529 197C511.3 199 493.7 207 476.2 221C458.7 235 441.3 255 423.8 258C406.3 261 388.7 247 371 227C353.3 207 335.7 181 318 183C300.3 185 282.7 215 265 218C247.3 221 229.7 197 212 176C194.3 155 176.7 137 159 137C141.3 137 123.7 155 106 150C88.3 145 70.7 117 53 134C35.3 151 17.7 213 8.8 244L0 275Z" fill="#363636"></path><path d="M0 391L8.8 370C17.7 349 35.3 307 53 298C70.7 289 88.3 313 106 307C123.7 301 141.3 265 159 265C176.7 265 194.3 301 212 333C229.7 365 247.3 393 265 386C282.7 379 300.3 337 318 332C335.7 327 353.3 359 371 370C388.7 381 406.3 371 423.8 372C441.3 373 458.7 385 476.2 387C493.7 389 511.3 381 529 380C546.7 379 564.3 385 582 379C599.7 373 617.3 355 635 332C652.7 309 670.3 281 688 289C705.7 297 723.3 341 741 364C758.7 387 776.3 389 794 377C811.7 365 829.3 339 847 336C864.7 333 882.3 353 891.2 363L900 373L900 239L891.2 235C882.3 231 864.7 223 847 234C829.3 245 811.7 275 794 287C776.3 299 758.7 293 741 275C723.3 257 705.7 227 688 215C670.3 203 652.7 209 635 222C617.3 235 599.7 255 582 261C564.3 267 546.7 259 529 260C511.3 261 493.7 271 476.2 282C458.7 293 441.3 305 423.8 309C406.3 313 388.7 309 371 290C353.3 271 335.7 237 318 234C300.3 231 282.7 259 265 267C247.3 275 229.7 263 212 241C194.3 219 176.7 187 159 187C141.3 187 123.7 219 106 221C88.3 223 70.7 195 53 208C35.3 221 17.7 275 8.8 302L0 329Z" fill="#4b4b4b"></path><path d="M0 469L8.8 458C17.7 447 35.3 425 53 422C70.7 419 88.3 435 106 434C123.7 433 141.3 415 159 407C176.7 399 194.3 401 212 418C229.7 435 247.3 467 265 471C282.7 475 300.3 451 318 445C335.7 439 353.3 451 371 458C388.7 465 406.3 467 423.8 470C441.3 473 458.7 477 476.2 485C493.7 493 511.3 505 529 509C546.7 513 564.3 509 582 497C599.7 485 617.3 465 635 445C652.7 425 670.3 405 688 417C705.7 429 723.3 473 741 483C758.7 493 776.3 469 794 447C811.7 425 829.3 405 847 417C864.7 429 882.3 473 891.2 495L900 517L900 371L891.2 361C882.3 351 864.7 331 847 334C829.3 337 811.7 363 794 375C776.3 387 758.7 385 741 362C723.3 339 705.7 295 688 287C670.3 279 652.7 307 635 330C617.3 353 599.7 371 582 377C564.3 383 546.7 377 529 378C511.3 379 493.7 387 476.2 385C458.7 383 441.3 371 423.8 370C406.3 369 388.7 379 371 368C353.3 357 335.7 325 318 330C300.3 335 282.7 377 265 384C247.3 391 229.7 363 212 331C194.3 299 176.7 263 159 263C141.3 263 123.7 299 106 305C88.3 311 70.7 287 53 296C35.3 305 17.7 347 8.8 368L0 389Z" fill="#606060"></path><path d="M0 601L8.8 601C17.7 601 35.3 601 53 601C70.7 601 88.3 601 106 601C123.7 601 141.3 601 159 601C176.7 601 194.3 601 212 601C229.7 601 247.3 601 265 601C282.7 601 300.3 601 318 601C335.7 601 353.3 601 371 601C388.7 601 406.3 601 423.8 601C441.3 601 458.7 601 476.2 601C493.7 601 511.3 601 529 601C546.7 601 564.3 601 582 601C599.7 601 617.3 601 635 601C652.7 601 670.3 601 688 601C705.7 601 723.3 601 741 601C758.7 601 776.3 601 794 601C811.7 601 829.3 601 847 601C864.7 601 882.3 601 891.2 601L900 601L900 515L891.2 493C882.3 471 864.7 427 847 415C829.3 403 811.7 423 794 445C776.3 467 758.7 491 741 481C723.3 471 705.7 427 688 415C670.3 403 652.7 423 635 443C617.3 463 599.7 483 582 495C564.3 507 546.7 511 529 507C511.3 503 493.7 491 476.2 483C458.7 475 441.3 471 423.8 468C406.3 465 388.7 463 371 456C353.3 449 335.7 437 318 443C300.3 449 282.7 473 265 469C247.3 465 229.7 433 212 416C194.3 399 176.7 397 159 405C141.3 413 123.7 431 106 432C88.3 433 70.7 417 53 420C35.3 423 17.7 445 8.8 456L0 467Z" fill="#767676"></path></svg>